<svg width="279" height="60" viewBox="0 0 279 60" fill="none" xmlns="http://www.w3.org/2000/svg">
<path d="M255.999 46.6586C254.053 46.2092 252.379 44.9733 251.184 43.3555L250.533 42.4792L250.128 42.805C247.058 45.2767 244.423 48.9898 242.321 52.3434H253.708L253.78 51.8716C254.02 50.2762 255.376 49.0965 256.972 49.0965H257.917C257.923 47.9337 257.128 46.9226 255.999 46.6586Z" fill="#E9E7E4"/>
<path d="M219.559 41.1254L219.259 41.7208C218.214 43.7993 216.685 45.5856 214.806 46.9282L208.256 52.3434H219.937L219.954 52.1075C220.088 50.411 221.489 49.1022 223.173 49.1022H224.146C224.146 47.8158 223.891 46.5013 223.179 45.4284C222.389 44.2318 219.559 41.1254 219.559 41.1254Z" fill="#E9E7E4"/>
<path d="M235.7 41.1254H230.713V41.9174C230.713 43.8667 230.251 45.7822 229.361 47.5124L227.26 52.3434H232.909L233.042 51.3941C233.27 49.7875 234.632 48.591 236.239 48.591H238.107V43.5634C238.113 42.2152 237.034 41.1254 235.7 41.1254Z" fill="#E9E7E4"/>
<path d="M268.743 7.66222H167.623C166.639 7.66222 165.844 8.46551 165.844 9.4598V50.5515C165.844 51.5457 166.639 52.349 167.623 52.349H198.853L198.987 51.3997C199.215 49.7931 200.577 48.5966 202.184 48.5966H204.458L207.049 45.3722C208.233 43.9004 209.112 42.2039 209.64 40.3895L210.435 37.6538H207.471C205.959 37.6538 204.486 38.1257 203.251 39.0076L201.684 40.1255C201.116 38.9065 199.682 38.3784 198.475 38.9514L195.584 40.3165C194.4 40.9063 192.982 40.7322 191.981 39.8671L189.001 37.0527L192.304 33.1261C192.915 32.4015 192.826 31.3117 192.104 30.6938L195.139 27.0817V25.7111C195.139 25.1213 195.345 24.5539 195.723 24.1045L196.14 23.6102L196.835 24.2C197.28 24.5764 197.842 24.7842 198.42 24.7842H198.826C198.826 24.1944 199.031 23.627 199.409 23.1776L200.249 22.1777L201.795 23.4922L211.063 17.5939C215.567 14.729 221.271 14.538 225.903 17.1782C228.46 18.6331 231.541 18.8522 234.276 17.768C241.921 14.7402 250.639 17.3579 255.81 23.7955L259.886 28.8737C259.107 29.5984 258.929 30.7724 259.469 31.6993C260.592 33.6373 261.014 35.9011 260.981 38.1481C260.942 40.822 261.537 43.4679 262.716 45.8609L262.938 46.3103V46.9844C262.938 49.0797 261.982 51.057 260.347 52.349H268.743C269.727 52.349 270.522 51.5457 270.522 50.5515V9.45418C270.516 8.46551 269.721 7.66222 268.743 7.66222ZM184.47 30.6488L179.972 27.3458L175.474 30.6488L177.192 25.3066L172.694 22.0036H178.254L179.972 16.6614L181.69 22.0036H187.25L182.752 25.3066L184.47 30.6488Z" fill="#E9E7E4"/>
<path d="M7.68359 31.0196C7.68359 17.6163 17.6026 7.0162 30.4907 7.0162C34.2826 7.0162 36.4955 8.03858 38.1969 8.03858C39.648 8.03858 39.5535 7.14541 41.4828 7.14541C43.3121 7.14541 43.1898 7.7858 44.0126 10.4653C44.5798 12.5719 45.2136 15.0604 45.8474 18.8915C46.0976 20.3577 46.4368 21.3182 44.6465 21.4474C42.8562 21.5766 42.8784 20.5543 41.7386 18.8915C38.9586 14.5492 35.2946 11.7236 29.2286 11.7236C20.5105 11.7236 15.3286 18.5713 15.3286 27.5705C15.3286 38.9964 21.7115 46.2878 31.8196 46.2878C37.6965 46.2878 41.4884 44.8273 44.7076 41.3164C45.5416 40.5131 47.2096 42.1421 46.5424 43.4229C44.5186 47.254 40.4264 52.9726 29.2953 52.9726C16.2738 52.9782 7.68359 44.2992 7.68359 31.0196Z" fill="#E9E7E4"/>
<path d="M85.563 37.9796C85.563 47.4282 78.3628 52.3434 66.1697 52.3434H53.0258C50.6906 52.3434 49.6787 52.3434 49.6787 50.8099C49.6787 47.3607 53.6597 50.2369 53.6597 42.5747V17.4253C53.6597 9.76314 49.6787 12.6393 49.6787 9.19017C49.6787 7.6566 50.6906 7.6566 53.0258 7.6566H64.5851C74.1872 7.6566 80.2532 10.7181 80.3143 17.4253C80.3143 21.2565 78.1014 24.3854 73.5534 25.7223C81.076 27.0649 85.563 31.7218 85.563 37.9796ZM60.9878 22.4698C60.9878 23.8742 62.8226 23.8124 64.4628 23.8124C70.462 23.8124 72.8639 22.2788 72.8639 18.3859C72.8639 14.1728 69.4501 12.1337 64.2737 12.1337C62.1276 12.1337 60.9878 12.5157 60.9878 14.4312V22.4698ZM77.412 39.384C77.412 32.6149 72.6749 28.5367 64.1458 28.5367C61.3658 28.5367 60.9878 29.2388 60.9878 30.7724V43.2769C60.9878 46.4058 61.7439 47.7427 66.0418 47.7427C73.6868 47.7427 77.412 46.0856 77.412 39.384Z" fill="#E9E7E4"/>
<path d="M123.543 7.65659C125.311 7.65659 126.451 7.65659 126.451 9.12274C126.451 11.9764 123.165 10.3979 121.207 15.5042L107.491 51.1188C107.207 51.8547 106.507 52.3378 105.728 52.3378H102.809C102.037 52.3378 101.342 51.8603 101.052 51.1357L87.0246 15.6334C84.9396 10.3979 82.3486 12.1056 82.3486 9.25194C82.3486 7.65659 83.2327 7.65659 85.5734 7.65659H94.3527C96.1208 7.65659 97.1327 7.65659 97.1327 9.12274C97.1327 12.2292 93.0906 10.6563 95.0477 15.6334L105.556 42.7095L115.825 15.1952C117.721 10.0889 114.78 11.6169 114.78 9.18454C114.78 7.65097 115.92 7.65097 117.371 7.65097H123.543V7.65659Z" fill="#E9E7E4"/>
<path d="M127.268 44.4902C125.311 49.5965 128.491 48.1472 128.491 50.8099C128.491 52.3434 127.352 52.3434 125.9 52.3434H119.034C117.266 52.3434 116.126 52.3434 116.126 50.8773C116.126 48.0236 119.412 49.6021 121.369 44.4958L132.528 16.0659C134.713 10.4878 130.849 11.6675 130.849 9.19578C130.849 7.66222 131.416 7.66222 132.745 7.66222H140.623C141.635 7.66222 142.264 8.11161 142.647 9.06658L156.419 44.3666C158.504 49.6021 161.095 47.8944 161.095 50.7481C161.095 52.3434 160.211 52.3434 157.87 52.3434H149.091C147.323 52.3434 146.311 52.3434 146.311 50.8773C146.311 47.7652 149.997 49.3437 148.04 44.3666L147.195 41.9399C146.439 40.0244 146.439 40.0244 137.843 40.0244C128.936 40.0244 128.936 40.0244 128.241 41.8781L127.268 44.4902ZM144.476 33.6991L137.654 16.6558L130.893 33.6991C130.26 35.3563 130.26 35.3563 137.905 35.3563C145.11 35.3619 145.11 35.3619 144.476 33.6991Z" fill="#E9E7E4"/>
</svg>

